<svg id="nyancat" version="1.1" xmlns="http://www.w3.org/2000/svg" width="42" height="42" viewBox="0, 0, 42, 42">
    <g id="cat">
        <path id="path0" d="M18 11L 35 11L 35 12L 18 12Z" fill="#000000"/>
        <path id="path1" d="M17 12L 18 12L 18 13L 17 13Z" fill="#000000"/>
        <path id="path2" d="M18 12L 35 12L 35 13L 18 13Z" fill="#fff0cd"/>
        <path id="path3" d="M35 12L 36 12L 36 13L 35 13Z" fill="#000000"/>
        <path id="path4" d="M16 13L 17 13L 17 14L 16 14Z" fill="#000000"/>
        <path id="path5" d="M17 13L 20 13L 20 14L 17 14Z" fill="#fff0cd"/>
        <path id="path6" d="M20 13L 33 13L 33 14L 20 14Z" fill="#ff9ff1"/>
        <path id="path7" d="M33 13L 36 13L 36 14L 33 14Z" fill="#fff0cd"/>
        <path id="path8" d="M36 13L 37 13L 37 14L 36 14Z" fill="#000000"/>
        <path id="path9" d="M4 14L 8 14L 8 15L 4 15Z" fill="#ff0000"/>
        <path id="path10" d="M12 14L 16 14L 16 15L 12 15Z" fill="#ff0000"/>
        <path id="path11" d="M16 14L 17 14L 17 15L 16 15Z" fill="#000000"/>
        <path id="path12" d="M17 14L 19 14L 19 15L 17 15Z" fill="#fff0cd"/>
        <path id="path13" d="M19 14L 25 14L 25 15L 19 15Z" fill="#ff9ff1"/>
        <path id="path14" d="M25 14L 26 14L 26 15L 25 15Z" fill="#de67ce"/>
        <path id="path15" d="M26 14L 28 14L 28 15L 26 15Z" fill="#ff9ff1"/>
        <path id="path16" d="M28 14L 29 14L 29 15L 28 15Z" fill="#de67ce"/>
        <path id="path17" d="M29 14L 34 14L 34 15L 29 15Z" fill="#ff9ff1"/>
        <path id="path18" d="M34 14L 36 14L 36 15L 34 15Z" fill="#fff0cd"/>
        <path id="path19" d="M36 14L 37 14L 37 15L 36 15Z" fill="#000000"/>
        <path id="path20" d="M0 15L 16 15L 16 16L 0 16Z" fill="#ff0000"/>
        <path id="path21" d="M16 15L 17 15L 17 16L 16 16Z" fill="#000000"/>
        <path id="path22" d="M17 15L 18 15L 18 16L 17 16Z" fill="#fff0cd"/>
        <path id="path23" d="M18 15L 20 15L 20 16L 18 16Z" fill="#ff9ff1"/>
        <path id="path24" d="M20 15L 21 15L 21 16L 20 16Z" fill="#de67ce"/>
        <path id="path25" d="M21 15L 35 15L 35 16L 21 16Z" fill="#ff9ff1"/>
        <path id="path26" d="M35 15L 36 15L 36 16L 35 16Z" fill="#fff0cd"/>
        <path id="path27" d="M36 15L 37 15L 37 16L 36 16Z" fill="#000000"/>
        <path id="path28" d="M0 16L 4 16L 4 17L 0 17Z" fill="#ff0000"/>
        <path id="path29" d="M4 16L 8 16L 8 17L 4 17Z" fill="#ffcb00"/>
        <path id="path30" d="M8 16L 12 16L 12 17L 8 17Z" fill="#ff0000"/>
        <path id="path31" d="M12 16L 16 16L 16 17L 12 17Z" fill="#ffcb00"/>
        <path id="path32" d="M16 16L 17 16L 17 17L 16 17Z" fill="#000000"/>
        <path id="path33" d="M17 16L 18 16L 18 17L 17 17Z" fill="#fff0cd"/>
        <path id="path34" d="M18 16L 28 16L 28 17L 18 17Z" fill="#ff9ff1"/>
        <path id="path35" d="M28 16L 30 16L 30 17L 28 17Z" fill="#000000"/>
        <path id="path36" d="M30 16L 31 16L 31 17L 30 17Z" fill="#ff9ff1"/>
        <path id="path37" d="M31 16L 32 16L 32 17L 31 17Z" fill="#de67ce"/>
        <path id="path38" d="M32 16L 35 16L 35 17L 32 17Z" fill="#ff9ff1"/>
        <path id="path39" d="M35 16L 36 16L 36 17L 35 17Z" fill="#fff0cd"/>
        <path id="path40" d="M36 16L 37 16L 37 17L 36 17Z" fill="#000000"/>
        <path id="path41" d="M38 16L 40 16L 40 17L 38 17Z" fill="#000000"/>
        <path id="path42" d="M0 17L 16 17L 16 18L 0 18Z" fill="#ffcb00"/>
        <path id="path43" d="M16 17L 17 17L 17 18L 16 18Z" fill="#000000"/>
        <path id="path44" d="M17 17L 18 17L 18 18L 17 18Z" fill="#fff0cd"/>
        <path id="path45" d="M18 17L 27 17L 27 18L 18 18Z" fill="#ff9ff1"/>
        <path id="path46" d="M27 17L 28 17L 28 18L 27 18Z" fill="#000000"/>
        <path id="path47" d="M28 17L 30 17L 30 18L 28 18Z" fill="#bdbbbb"/>
        <path id="path48" d="M30 17L 31 17L 31 18L 30 18Z" fill="#000000"/>
        <path id="path49" d="M31 17L 35 17L 35 18L 31 18Z" fill="#ff9ff1"/>
        <path id="path50" d="M35 17L 36 17L 36 18L 35 18Z" fill="#fff0cd"/>
        <path id="path51" d="M36 17L 38 17L 38 18L 36 18Z" fill="#000000"/>
        <path id="path52" d="M38 17L 40 17L 40 18L 38 18Z" fill="#bdbbbb"/>
        <path id="path53" d="M40 17L 41 17L 41 18L 40 18Z" fill="#000000"/>
        <path id="path54" d="M0 18L 4 18L 4 19L 0 19Z" fill="#ffcb00"/>
        <path id="path55" d="M4 18L 8 18L 8 19L 4 19Z" fill="#feff00"/>
        <path id="path56" d="M8 18L 10 18L 10 19L 8 19Z" fill="#ffcb00"/>
        <path id="path57" d="M10 18L 14 18L 14 19L 10 19Z" fill="#000000"/>
        <path id="path58" d="M14 18L 16 18L 16 19L 14 19Z" fill="#feff00"/>
        <path id="path59" d="M16 18L 17 18L 17 19L 16 19Z" fill="#000000"/>
        <path id="path60" d="M17 18L 18 18L 18 19L 17 19Z" fill="#fff0cd"/>
        <path id="path61" d="M18 18L 24 18L 24 19L 18 19Z" fill="#ff9ff1"/>
        <path id="path62" d="M24 18L 25 18L 25 19L 24 19Z" fill="#de67ce"/>
        <path id="path63" d="M25 18L 27 18L 27 19L 25 19Z" fill="#ff9ff1"/>
        <path id="path64" d="M27 18L 28 18L 28 19L 27 19Z" fill="#000000"/>
        <path id="path65" d="M28 18L 31 18L 31 19L 28 19Z" fill="#bdbbbb"/>
        <path id="path66" d="M31 18L 32 18L 32 19L 31 19Z" fill="#000000"/>
        <path id="path67" d="M32 18L 35 18L 35 19L 32 19Z" fill="#ff9ff1"/>
        <path id="path68" d="M35 18L 36 18L 36 19L 35 19Z" fill="#fff0cd"/>
        <path id="path69" d="M36 18L 37 18L 37 19L 36 19Z" fill="#000000"/>
        <path id="path70" d="M37 18L 40 18L 40 19L 37 19Z" fill="#bdbbbb"/>
        <path id="path71" d="M40 18L 41 18L 41 19L 40 19Z" fill="#000000"/>
        <path id="path72" d="M0 19L 10 19L 10 20L 0 20Z" fill="#feff00"/>
        <path id="path73" d="M10 19L 11 19L 11 20L 10 20Z" fill="#000000"/>
        <path id="path74" d="M11 19L 13 19L 13 20L 11 20Z" fill="#bdbbbb"/>
        <path id="path75" d="M13 19L 15 19L 15 20L 13 20Z" fill="#000000"/>
        <path id="path76" d="M15 19L 16 19L 16 20L 15 20Z" fill="#feff00"/>
        <path id="path77" d="M16 19L 17 19L 17 20L 16 20Z" fill="#000000"/>
        <path id="path78" d="M17 19L 18 19L 18 20L 17 20Z" fill="#fff0cd"/>
        <path id="path79" d="M18 19L 27 19L 27 20L 18 20Z" fill="#ff9ff1"/>
        <path id="path80" d="M27 19L 28 19L 28 20L 27 20Z" fill="#000000"/>
        <path id="path81" d="M28 19L 32 19L 32 20L 28 20Z" fill="#bdbbbb"/>
        <path id="path82" d="M32 19L 36 19L 36 20L 32 20Z" fill="#000000"/>
        <path id="path83" d="M36 19L 40 19L 40 20L 36 20Z" fill="#bdbbbb"/>
        <path id="path84" d="M40 19L 41 19L 41 20L 40 20Z" fill="#000000"/>
        <path id="path85" d="M0 20L 4 20L 4 21L 0 21Z" fill="#feff00"/>
        <path id="path86" d="M4 20L 8 20L 8 21L 4 21Z" fill="#00ad00"/>
        <path id="path87" d="M8 20L 10 20L 10 21L 8 21Z" fill="#feff00"/>
        <path id="path88" d="M10 20L 12 20L 12 21L 10 21Z" fill="#000000"/>
        <path id="path89" d="M12 20L 14 20L 14 21L 12 21Z" fill="#bdbbbb"/>
        <path id="path90" d="M14 20L 17 20L 17 21L 14 21Z" fill="#000000"/>
        <path id="path91" d="M17 20L 18 20L 18 21L 17 21Z" fill="#fff0cd"/>
        <path id="path92" d="M18 20L 21 20L 21 21L 18 21Z" fill="#ff9ff1"/>
        <path id="path93" d="M21 20L 22 20L 22 21L 21 21Z" fill="#de67ce"/>
        <path id="path94" d="M22 20L 27 20L 27 21L 22 21Z" fill="#ff9ff1"/>
        <path id="path95" d="M27 20L 28 20L 28 21L 27 21Z" fill="#000000"/>
        <path id="path96" d="M28 20L 40 20L 40 21L 28 21Z" fill="#bdbbbb"/>
        <path id="path97" d="M40 20L 41 20L 41 21L 40 21Z" fill="#000000"/>
        <path id="path98" d="M0 21L 11 21L 11 22L 0 22Z" fill="#00ad00"/>
        <path id="path99" d="M11 21L 13 21L 13 22L 11 22Z" fill="#000000"/>
        <path id="path100" d="M13 21L 15 21L 15 22L 13 22Z" fill="#bdbbbb"/>
        <path id="path101" d="M15 21L 17 21L 17 22L 15 22Z" fill="#000000"/>
        <path id="path102" d="M17 21L 18 21L 18 22L 17 22Z" fill="#fff0cd"/>
        <path id="path103" d="M18 21L 26 21L 26 22L 18 22Z" fill="#ff9ff1"/>
        <path id="path104" d="M26 21L 27 21L 27 22L 26 22Z" fill="#000000"/>
        <path id="path105" d="M27 21L 41 21L 41 22L 27 22Z" fill="#bdbbbb"/>
        <path id="path106" d="M41 21L 42 21L 42 22L 41 22Z" fill="#000000"/>
        <path id="path107" d="M0 22L 4 22L 4 23L 0 23Z" fill="#00ad00"/>
        <path id="path108" d="M4 22L 8 22L 8 23L 4 23Z" fill="#008bff"/>
        <path id="path109" d="M8 22L 12 22L 12 23L 8 23Z" fill="#00ad00"/>
        <path id="path110" d="M12 22L 14 22L 14 23L 12 23Z" fill="#000000"/>
        <path id="path111" d="M14 22L 16 22L 16 23L 14 23Z" fill="#bdbbbb"/>
        <path id="path112" d="M16 22L 17 22L 17 23L 16 23Z" fill="#000000"/>
        <path id="path113" d="M17 22L 18 22L 18 23L 17 23Z" fill="#fff0cd"/>
        <path id="path114" d="M18 22L 19 22L 19 23L 18 23Z" fill="#ff9ff1"/>
        <path id="path115" d="M19 22L 20 22L 20 23L 19 23Z" fill="#de67ce"/>
        <path id="path116" d="M20 22L 26 22L 26 23L 20 23Z" fill="#ff9ff1"/>
        <path id="path117" d="M26 22L 27 22L 27 23L 26 23Z" fill="#000000"/>
        <path id="path118" d="M27 22L 30 22L 30 23L 27 23Z" fill="#bdbbbb"/>
        <path id="path119" d="M30 22L 31 22L 31 23L 30 23Z" fill="#ffffff"/>
        <path id="path120" d="M31 22L 32 22L 32 23L 31 23Z" fill="#000000"/>
        <path id="path121" d="M32 22L 37 22L 37 23L 32 23Z" fill="#bdbbbb"/>
        <path id="path122" d="M37 22L 38 22L 38 23L 37 23Z" fill="#ffffff"/>
        <path id="path123" d="M38 22L 39 22L 39 23L 38 23Z" fill="#000000"/>
        <path id="path124" d="M39 22L 41 22L 41 23L 39 23Z" fill="#bdbbbb"/>
        <path id="path125" d="M41 22L 42 22L 42 23L 41 23Z" fill="#000000"/>
        <path id="path126" d="M0 23L 13 23L 13 24L 0 24Z" fill="#008bff"/>
        <path id="path127" d="M13 23L 17 23L 17 24L 13 24Z" fill="#000000"/>
        <path id="path128" d="M17 23L 18 23L 18 24L 17 24Z" fill="#fff0cd"/>
        <path id="path129" d="M18 23L 24 23L 24 24L 18 24Z" fill="#ff9ff1"/>
        <path id="path130" d="M24 23L 25 23L 25 24L 24 24Z" fill="#de67ce"/>
        <path id="path131" d="M25 23L 26 23L 26 24L 25 24Z" fill="#ff9ff1"/>
        <path id="path132" d="M26 23L 27 23L 27 24L 26 24Z" fill="#000000"/>
        <path id="path133" d="M27 23L 30 23L 30 24L 27 24Z" fill="#bdbbbb"/>
        <path id="path134" d="M30 23L 32 23L 32 24L 30 24Z" fill="#000000"/>
        <path id="path135" d="M32 23L 35 23L 35 24L 32 24Z" fill="#bdbbbb"/>
        <path id="path136" d="M35 23L 36 23L 36 24L 35 24Z" fill="#000000"/>
        <path id="path137" d="M36 23L 37 23L 37 24L 36 24Z" fill="#bdbbbb"/>
        <path id="path138" d="M37 23L 39 23L 39 24L 37 24Z" fill="#000000"/>
        <path id="path139" d="M39 23L 41 23L 41 24L 39 24Z" fill="#bdbbbb"/>
        <path id="path140" d="M41 23L 42 23L 42 24L 41 24Z" fill="#000000"/>
        <path id="path141" d="M0 24L 4 24L 4 25L 0 25Z" fill="#008bff"/>
        <path id="path142" d="M4 24L 8 24L 8 25L 4 25Z" fill="#8d24ff"/>
        <path id="path143" d="M8 24L 12 24L 12 25L 8 25Z" fill="#008bff"/>
        <path id="path144" d="M12 24L 15 24L 15 25L 12 25Z" fill="#8d24ff"/>
        <path id="path145" d="M15 24L 17 24L 17 25L 15 25Z" fill="#000000"/>
        <path id="path146" d="M17 24L 18 24L 18 25L 17 25Z" fill="#fff0cd"/>
        <path id="path147" d="M18 24L 26 24L 26 25L 18 25Z" fill="#ff9ff1"/>
        <path id="path148" d="M26 24L 27 24L 27 25L 26 25Z" fill="#000000"/>
        <path id="path149" d="M27 24L 28 24L 28 25L 27 25Z" fill="#bdbbbb"/>
        <path id="path150" d="M28 24L 30 24L 30 25L 28 25Z" fill="#ffb9eb"/>
        <path id="path151" d="M30 24L 39 24L 39 25L 30 25Z" fill="#bdbbbb"/>
        <path id="path152" d="M39 24L 41 24L 41 25L 39 25Z" fill="#ffb9eb"/>
        <path id="path153" d="M41 24L 42 24L 42 25L 41 25Z" fill="#000000"/>
        <path id="path154" d="M0 25L 16 25L 16 26L 0 26Z" fill="#8d24ff"/>
        <path id="path155" d="M16 25L 17 25L 17 26L 16 26Z" fill="#000000"/>
        <path id="path156" d="M17 25L 19 25L 19 26L 17 26Z" fill="#fff0cd"/>
        <path id="path157" d="M19 25L 20 25L 20 26L 19 26Z" fill="#ff9ff1"/>
        <path id="path158" d="M20 25L 21 25L 21 26L 20 26Z" fill="#de67ce"/>
        <path id="path159" d="M21 25L 26 25L 26 26L 21 26Z" fill="#ff9ff1"/>
        <path id="path160" d="M26 25L 27 25L 27 26L 26 26Z" fill="#000000"/>
        <path id="path161" d="M27 25L 28 25L 28 26L 27 26Z" fill="#bdbbbb"/>
        <path id="path162" d="M28 25L 30 25L 30 26L 28 26Z" fill="#ffb9eb"/>
        <path id="path163" d="M30 25L 31 25L 31 26L 30 26Z" fill="#bdbbbb"/>
        <path id="path164" d="M31 25L 32 25L 32 26L 31 26Z" fill="#000000"/>
        <path id="path165" d="M32 25L 34 25L 34 26L 32 26Z" fill="#bdbbbb"/>
        <path id="path166" d="M34 25L 35 25L 35 26L 34 26Z" fill="#000000"/>
        <path id="path167" d="M35 25L 37 25L 37 26L 35 26Z" fill="#bdbbbb"/>
        <path id="path168" d="M37 25L 38 25L 38 26L 37 26Z" fill="#000000"/>
        <path id="path169" d="M38 25L 39 25L 39 26L 38 26Z" fill="#bdbbbb"/>
        <path id="path170" d="M39 25L 41 25L 41 26L 39 26Z" fill="#ffb9eb"/>
        <path id="path171" d="M41 25L 42 25L 42 26L 41 26Z" fill="#000000"/>
        <path id="path172" d="M0 26L 4 26L 4 27L 0 27Z" fill="#8d24ff"/>
        <path id="path173" d="M8 26L 12 26L 12 27L 8 27Z" fill="#8d24ff"/>
        <path id="path174" d="M16 26L 17 26L 17 27L 16 27Z" fill="#000000"/>
        <path id="path175" d="M17 26L 20 26L 20 27L 17 27Z" fill="#fff0cd"/>
        <path id="path176" d="M20 26L 27 26L 27 27L 20 27Z" fill="#ff9ff1"/>
        <path id="path177" d="M27 26L 28 26L 28 27L 27 27Z" fill="#000000"/>
        <path id="path178" d="M28 26L 31 26L 31 27L 28 27Z" fill="#bdbbbb"/>
        <path id="path179" d="M31 26L 38 26L 38 27L 31 27Z" fill="#000000"/>
        <path id="path180" d="M38 26L 40 26L 40 27L 38 27Z" fill="#bdbbbb"/>
        <path id="path181" d="M40 26L 41 26L 41 27L 40 27Z" fill="#000000"/>
        <path id="path182" d="M15 27L 18 27L 18 28L 15 28Z" fill="#000000"/>
        <path id="path183" d="M18 27L 28 27L 28 28L 18 28Z" fill="#fff0cd"/>
        <path id="path184" d="M28 27L 29 27L 29 28L 28 28Z" fill="#000000"/>
        <path id="path185" d="M29 27L 39 27L 39 28L 29 28Z" fill="#bdbbbb"/>
        <path id="path186" d="M39 27L 40 27L 40 28L 39 28Z" fill="#000000"/>
        <path id="path187" d="M14 28L 15 28L 15 29L 14 29Z" fill="#000000"/>
        <path id="path188" d="M15 28L 18 28L 18 29L 15 29Z" fill="#bdbbbb"/>
        <path id="path189" d="M18 28L 39 28L 39 29L 18 29Z" fill="#000000"/>
        <path id="path190" d="M14 29L 15 29L 15 30L 14 30Z" fill="#000000"/>
        <path id="path191" d="M15 29L 17 29L 17 30L 15 30Z" fill="#bdbbbb"/>
        <path id="path192" d="M17 29L 19 29L 19 30L 17 30Z" fill="#000000"/>
        <path id="path193" d="M20 29L 21 29L 21 30L 20 30Z" fill="#000000"/>
        <path id="path194" d="M21 29L 23 29L 23 30L 21 30Z" fill="#bdbbbb"/>
        <path id="path195" d="M23 29L 24 29L 24 30L 23 30Z" fill="#000000"/>
        <path id="path196" d="M29 29L 30 29L 30 30L 29 30Z" fill="#000000"/>
        <path id="path197" d="M30 29L 32 29L 32 30L 30 30Z" fill="#bdbbbb"/>
        <path id="path198" d="M32 29L 33 29L 33 30L 32 30Z" fill="#000000"/>
        <path id="path199" d="M34 29L 35 29L 35 30L 34 30Z" fill="#000000"/>
        <path id="path200" d="M35 29L 37 29L 37 30L 35 30Z" fill="#bdbbbb"/>
        <path id="path201" d="M37 29L 38 29L 38 30L 37 30Z" fill="#000000"/>
        <path id="path202" d="M14 30L 18 30L 18 31L 14 31Z" fill="#000000"/>
        <path id="path203" d="M20 30L 23 30L 23 31L 20 31Z" fill="#000000"/>
        <path id="path204" d="M30 30L 33 30L 33 31L 30 31Z" fill="#000000"/>
        <path id="path205" d="M35 30L 37 30L 37 31L 35 31Z" fill="#000000"/>
    </g>
</svg>
