<?xml version="1.0" encoding="UTF-8" standalone="no"?>
<svg xmlns="http://www.w3.org/2000/svg" id="nyancat" version="1.1" width="32" height="20" viewBox="10, 11, 32, 20">
    <g id="cat">
        <path fill="#000000" id="shadow"
              d="m 18,11 v 1 h -1 v 1 h -1 v 1 1 1 1 1 1 1 h -1 v -1 h -1 v -1 h -4 v 1 1 1 h 1 v 1 h 1 v 1 h 1 v 1 h 2 v 1 h 1 v 1 1 h -1 v 1 h -1 v 1 1 1 h 4 v -1 h 1 v -1 h 1 v 1 1 h 3 v -1 h 1 v -1 h 5 v 1 h 1 v 1 h 3 v -1 -1 h 1 v 1 h 1 v 1 h 2 v -1 h 1 v -1 h 1 v -1 h 1 v -1 h 1 v -1 h 1 v -1 -1 -1 -1 -1 h -1 v -1 -1 -1 -1 h -1 v -1 h -2 v 1 h -1 v -1 -1 -1 -1 h -1 v -1 h -1 v -1 z"/>
        <path id="paw1"
              d="M35 29L 37 29L 37 30L 35 30Z"
              fill="#bdbbbb"/>
        <path id="paw2"
              d="M30 29L 32 29L 32 30L 30 30Z"
              fill="#bdbbbb"/>
        <path id="paw3"
              d="M21 29L 23 29L 23 30L 21 30Z"
              fill="#bdbbbb"/>
        <path id="paw4"
              d="M15 28L 15 29L 15 30L 17 30L 17 29L 18 29L 18 28L 15 28Z"
              fill="#bdbbbb"/>
        <path id="tail"
              d="M11 19L 11 20L 12 20L 12 21L 13 21L 13 22L 14 22L14 23L 16 23L 16 22L 15 22L 15 21L 14 21L 14 20L 13 20L 13 19L 11 19Z"
              fill="#bdbbbb"/>
        <g id="cookie">
            <g id="plate">
                <path fill="#fff0cd"
                      d="m 18,12 v 1 h -1 v 1 1 1 1 1 1 1 1 1 1 1 1 1 1 h 1 v 1 h 10 7 v -1 h 1 v -8 -6 h -1 v -1 z"
                      id="layout1"/>
                <path fill="#ff9ff1"
                      d="m 20,13 v 1 h -1 v 1 h -1 v 1 1 1 1 1 1 1 1 1 1 h 1 v 1 h 1 v 1 h 7 6 v -1 h 1 v -1 h 1 v -6 -1 -1 -1 -1 h -1 v -1 h -1 v -1 z"
                      id="layout2"/>
            </g>
            <path d="M25 14L 26 14L 26 15L 25 15Z" id="dot1" fill="#de67ce"/>
            <path d="M28 14L 29 14L 29 15L 28 15Z" id="dot2" fill="#de67ce"/>
            <path d="M20 15L 21 15L 21 16L 20 16Z" id="dot3" fill="#de67ce"/>
            <path d="M31 16L 32 16L 32 17L 31 17Z" id="dot4" fill="#de67ce"/>
            <path d="M24 18L 25 18L 25 19L 24 19Z" id="dot5" fill="#de67ce"/>
            <path d="M21 20L 22 20L 22 21L 21 21Z" id="dot6" fill="#de67ce"/>
            <path d="M19 22L 20 22L 20 23L 19 23Z" id="dot7" fill="#de67ce"/>
            <path d="M24 23L 25 23L 25 24L 24 24Z" id="dot8" fill="#de67ce"/>
            <path d="M20 25L 21 25L 21 26L 20 26Z" id="dot9" fill="#de67ce"/>
        </g>
        <g id="head">
            <g id="face">
                <path id="layout1"
                      d="m 28,16 v 1 h -1 v 1 1 1 1 h -1 v 1 1 1 1 1 h 1 v 1 h 1 v 1 h 1 v 1 h 10 v -1 h 1 v -1 h 1 v -1 h 1 v -5 h -1 v -2 -1 -1 h -1 v -1 h -2 v 1 h -1 v 1 h -1 v 1 h -4 v -1 h -1 v -1 h -1 v -1 z"
                      fill="#000000"/>
                <path id="layout2"
                      d="m 28,17 v 1 1 1 1 h -1 v 1 1 1 1 1 h 1 v 1 h 1 v 1 h 10 v -1 h 1 v -1 h 1 v -2 -1 -1 -1 h -1 v -1 -1 -1 -1 h -2 v 1 h -1 v 1 h -1 v 1 h -4 v -1 h -1 v -1 h -1 v -1 z"
                      fill="#bdbbbb"/>
            </g>
            <g id="eye1">
                <path id="pupil" d="m 30,22 v 1 1 h 2 v -1 -1 z" fill="#000000"/>
                <path id="flare" d="M30 22L 31 22L 31 23L 30 23Z" fill="#ffffff"/>
            </g>
            <g id="eye2">
                <path id="pupil" d="m 37,22 v 1 1 h 2 v -1 -1 z" fill="#000000"/>
                <path id="flare" d="M37 22L 38 22L 38 23L 37 23Z" fill="#ffffff"/>
            </g>
            <path id="nose" fill="#000000"
                  d="M35 23L 36 23L 36 24L 35 24Z"/>
            <path id="cheek1" fill="#ffb9eb"
                  d="M28 24L 28 25L 28 26L 30 26L 30 25L 30 24L 28 24Z"/>
            <path id="cheek2" fill="#ffb9eb"
                  d="M39 24L 39 25L 39 26L 41 26L 41 25L 41 24L 39 24Z"/>
            <path id="mouth" fill="#000000"
                  d="M31 25L 31 26L 31 27L 38 27L 38 26L 38 25L 37 25L 37 26L 35 26L 35 25L 34 25L 34 26L 32 26L 32 25L 31 25Z"/>
        </g>
    </g>
</svg>
